<?xml version="1.0" standalone="no"?>
<!DOCTYPE svg PUBLIC "-//W3C//DTD SVG 20010904//EN"
 "http://www.w3.org/TR/2001/REC-SVG-20010904/DTD/svg10.dtd">
<svg version="1.0" xmlns="http://www.w3.org/2000/svg"
 width="261.000000pt" height="261.000000pt" viewBox="0 0 261.000000 261.000000"
 preserveAspectRatio="xMidYMid meet">
<metadata>
Created by potrace 1.14, written by Peter Selinger 2001-2017
</metadata>
<g transform="translate(0.000000,261.000000) scale(0.100000,-0.100000)"
fill="#000000" stroke="none">
<path d="M1890 2591 c-46 -15 -106 -58 -146 -106 -21 -26 -44 -52 -49 -58 -6
-7 -19 -28 -28 -47 -10 -19 -23 -44 -30 -55 -25 -43 -37 -65 -38 -70 0 -2 -10
-28 -23 -57 -30 -70 -107 -324 -121 -398 -5 -30 -12 -64 -22 -105 -4 -16 -7
-32 -8 -35 -3 -12 -17 -132 -20 -169 -2 -22 -6 -53 -9 -68 -9 -41 -20 -169
-31 -348 -6 -96 -6 -534 0 -605 10 -120 39 -170 85 -147 14 7 32 26 40 42 50
97 85 156 109 186 32 38 29 40 101 -56 24 -33 57 -72 73 -87 75 -68 164 -35
265 100 15 21 29 39 32 42 21 20 100 135 100 146 0 31 -30 11 -65 -42 -46 -69
-159 -191 -194 -209 -44 -22 -79 0 -148 92 -50 68 -96 113 -114 113 -33 0 -77
-53 -154 -187 -20 -35 -40 -63 -45 -63 -6 0 -9 3 -8 7 1 5 -1 67 -6 140 -7
128 -7 133 16 165 13 18 25 35 28 38 3 3 23 32 44 65 21 33 47 72 57 87 11 15
19 32 19 38 0 5 3 10 8 10 4 0 12 10 18 23 20 39 66 122 74 132 4 6 29 51 55
100 27 50 52 92 56 95 6 4 62 119 129 265 40 88 79 185 73 185 -3 0 -1 6 5 13
10 13 58 149 88 252 22 76 21 73 29 119 4 21 9 48 11 60 16 75 20 106 18 148
-5 116 -48 212 -109 241 -34 15 -127 20 -165 8z m129 -65 c72 -38 100 -157 77
-326 -10 -75 -45 -215 -74 -290 -9 -25 -17 -47 -17 -50 -1 -7 -35 -98 -53
-140 -8 -19 -16 -37 -17 -40 -1 -3 -8 -21 -17 -40 -8 -19 -34 -75 -56 -125
-38 -86 -70 -149 -133 -260 -15 -27 -36 -66 -46 -85 -9 -19 -52 -91 -93 -160
-42 -69 -83 -136 -91 -150 -8 -14 -16 -27 -19 -30 -3 -3 -16 -21 -29 -40 l-22
-35 6 88 c4 49 8 114 10 145 9 142 21 268 31 317 4 17 8 41 10 55 1 14 5 50 8
80 10 87 17 134 31 200 10 49 15 76 21 120 3 25 9 61 14 80 5 19 11 49 14 65
3 17 10 45 15 63 5 18 9 33 9 35 -1 4 31 102 52 162 25 71 72 169 83 173 4 2
7 8 7 13 0 15 61 92 100 126 69 60 127 75 179 49z"/>
<path d="M992 2419 c-23 -12 -60 -41 -81 -66 -35 -41 -118 -192 -126 -231 -2
-10 -17 -53 -33 -97 -16 -44 -29 -84 -30 -90 -1 -5 -6 -23 -12 -40 -5 -16 -11
-41 -14 -55 -10 -49 -16 -73 -25 -104 -6 -17 -13 -44 -16 -61 -8 -46 -14 -75
-19 -93 -5 -17 -10 -40 -21 -116 -4 -21 -9 -48 -11 -60 -17 -86 -31 -183 -39
-257 -16 -158 -15 -152 -53 -190 -55 -53 -141 -109 -168 -109 -46 0 -21 -34
26 -36 31 -1 73 19 124 59 l38 30 -8 -99 c-11 -129 -11 -573 -1 -644 12 -78
40 -139 64 -136 17 3 18 15 19 157 0 85 4 172 8 194 10 55 44 183 59 220 6 17
12 32 13 35 2 14 19 50 42 95 59 113 130 188 179 188 32 0 73 -44 83 -88 14
-63 2 -183 -24 -247 -9 -20 -13 -37 -11 -40 3 -2 -12 -38 -33 -79 -58 -113
-134 -157 -206 -118 -43 23 -63 24 -63 5 0 -24 87 -64 132 -61 83 5 168 73
214 171 12 24 21 46 21 49 1 2 7 20 16 40 8 19 12 35 9 35 -3 0 -1 8 4 18 13
25 25 126 23 191 -3 73 -35 135 -80 157 -49 23 -132 13 -178 -22 -75 -58 -178
-262 -215 -427 -14 -65 -27 -83 -24 -34 11 152 17 222 20 227 2 3 6 37 10 77
19 228 17 220 95 302 8 9 26 32 40 51 13 19 27 37 30 40 3 3 25 34 50 70 24
36 49 70 56 75 11 10 60 91 82 135 6 14 16 32 22 40 5 8 14 26 20 40 5 14 14
32 20 40 11 17 61 130 65 145 1 6 8 24 14 40 7 17 15 39 17 49 2 11 13 47 24
80 17 55 40 149 55 237 3 17 6 70 7 118 2 96 -11 137 -58 184 -34 34 -91 36
-152 6z m143 -95 c19 -51 25 -132 13 -187 -4 -20 -11 -54 -14 -75 -10 -67 -24
-126 -44 -185 -11 -32 -22 -65 -23 -75 -2 -9 -8 -26 -14 -37 -6 -11 -16 -38
-23 -60 -15 -47 -117 -260 -157 -327 -15 -26 -39 -59 -53 -75 -14 -15 -42 -53
-63 -83 -55 -80 -117 -150 -113 -125 2 11 7 45 10 76 7 60 8 68 24 139 6 25
13 63 16 85 7 46 10 61 25 128 6 26 14 64 17 83 8 53 10 59 39 174 29 118 34
133 71 245 26 79 110 260 136 290 73 88 122 91 153 9z"/>
</g>
</svg>
